<?xml version="1.0" encoding="utf-8"?>
<!-- Generated by IcoMoon.io -->
<!DOCTYPE svg PUBLIC "-//W3C//DTD SVG 1.1//EN" "http://www.w3.org/Graphics/SVG/1.1/DTD/svg11.dtd">
<svg version="1.1" xmlns="http://www.w3.org/2000/svg" xmlns:xlink="http://www.w3.org/1999/xlink" width="64" height="64" viewBox="0 0 64 64">
<path d="M34.302 13.213c0 0-8.817-12.055-20.74-10.452-5.254 0 5.622 13.008 5.622 13.008l15.118-2.556z" fill="rgb(68, 68, 68)"></path>
<path d="M33.211 6.723c-14.44 0-26.435 8.826-28.862 20.442l0.509 10.655c3.306 10.623 14.745 18.459 28.354 18.459 16.191 0 29.318-11.094 29.318-24.778s-13.128-24.778-29.319-24.778z" fill="rgb(68, 68, 68)"></path>
<path d="M15.838 45.388c-0.986-0.487-1.793 0.015-1.793 1.114v8.997c0 1.1 0.842 2.319 1.87 2.71l2.344 0.89c1.028 0.391 2.568 0.142 3.421-0.553l6.3-5.129c0.853-0.694 0.744-1.661-0.242-2.148l-11.9-5.881z" fill="rgb(68, 68, 68)"></path>
<path d="M37.691 51.467c-1.046 0.339-1.273 1.262-0.506 2.049l6.281 6.439c0.768 0.787 2.222 1.073 3.23 0.635l2.3-0.999c1.009-0.438 1.937-1.691 2.062-2.784l0.93-8.069c0.126-1.093-0.628-1.709-1.674-1.37l-12.623 4.099z" fill="rgb(68, 68, 68)"></path>
<path d="M1.565 25.553h4.839v12.030h-4.839v-12.030z" fill="rgb(68, 68, 68)"></path>
<path d="M1.555 25.551c0 0 3.754-0.481 4.425-3.244l0.41 3.669-4.835-0.425z" fill="rgb(68, 68, 68)"></path>
<path d="M1.565 37.581c0 0 3.347 0.521 4.679 3.183l0.173-3.293-4.852 0.11z" fill="rgb(68, 68, 68)"></path>
<path d="M17.879 24.142c0 1.059-0.858 1.917-1.917 1.917s-1.917-0.858-1.917-1.917c0-1.059 0.858-1.917 1.917-1.917s1.917 0.858 1.917 1.917z" fill="rgb(245, 245, 245)"></path>
<path d="M33.391 12.114c2.080-0.627 4.226-0.696 6.336-0.496 1.064 0.070 2.103 0.307 3.148 0.534 1.035 0.269 2.052 0.622 3.057 1.017 0.981 0.452 1.958 0.931 2.877 1.52 0.898 0.617 1.797 1.249 2.562 2.040 1.568 1.519 2.826 3.414 3.33 5.524l0.008 0.032c0.013 0.052-0.020 0.104-0.072 0.117-0.041 0.010-0.082-0.008-0.104-0.042-2.202-3.417-5.663-5.829-9.379-7.35-1.853-0.799-3.791-1.404-5.764-1.851-1.973-0.441-3.986-0.749-6.004-0.844-0.054-0.002-0.096-0.048-0.093-0.103 0.002-0.042 0.030-0.078 0.069-0.089l0.029-0.009z" fill="rgb(255, 255, 255)"></path>
</svg>
