<?xml version="1.0" encoding="utf-8"?>
<!-- Generated by IcoMoon.io -->
<!DOCTYPE svg PUBLIC "-//W3C//DTD SVG 1.1//EN" "http://www.w3.org/Graphics/SVG/1.1/DTD/svg11.dtd">
<svg version="1.1" xmlns="http://www.w3.org/2000/svg" xmlns:xlink="http://www.w3.org/1999/xlink" width="64" height="64" viewBox="0 0 64 64">
<path d="M46.819 27.354l-0.026 0.002c-0.273-7.226-6.822-13.012-14.886-13.018-8.063 0.006-14.612 5.792-14.886 13.018l-0.026-0.002c0 0-0.061 0.441 0.032 1.354 0.063 0.89 0.223 1.757 0.47 2.592 0.025 0.086 0.061 0.169 0.088 0.256 0.551 2.044 1.581 4.874 3.521 8.612 3.282 6.325 3.465 8.387 3.608 9.903h14.386c0.144-1.517 0.326-3.578 3.608-9.903 1.939-3.738 2.97-6.568 3.521-8.612 0.027-0.087 0.062-0.17 0.088-0.256 0.247-0.835 0.406-1.702 0.47-2.592 0.092-0.913 0.032-1.354 0.032-1.354z" fill="#000000"></path>
<path d="M39.157 56.5c0 0.55-0.45 1-1 1h-12.5c-0.55 0-1-0.45-1-1v-1.499c0-0.55 0.45-1 1-1h12.5c0.55 0 1 0.45 1 1v1.499z" fill="#000000"></path>
<path d="M39.157 50.732c0 0.55-0.45 1-1 1h-12.5c-0.55 0-1-0.45-1-1v-1.499c0-0.55 0.45-1 1-1h12.5c0.55 0 1 0.45 1 1v1.499z" fill="#000000"></path>
<path d="M39.157 62.416c0 0.55-0.45 1-1 1h-12.5c-0.55 0-1-0.45-1-1v-1.499c0-0.55 0.45-1 1-1h12.5c0.55 0 1 0.45 1 1v1.499z" fill="#000000"></path>
<path d="M11.046 31.811c1.082-0.199 2.115 0.45 2.297 1.441s-0.555 1.967-1.637 2.164l-6.201 1.139c-1.082 0.197-2.116-0.451-2.299-1.443s0.555-1.965 1.637-2.164l6.203-1.137z" fill="#000000"></path>
<path d="M12.147 19.856c1.034 0.373 1.6 1.455 1.257 2.402s-1.471 1.418-2.505 1.045l-5.929-2.143c-1.035-0.375-1.602-1.456-1.258-2.404 0.342-0.949 1.469-1.419 2.504-1.045l5.931 2.145z" fill="#000000"></path>
<path d="M20.463 10.824c0.688 0.858 0.604 2.077-0.183 2.706-0.788 0.629-1.995 0.441-2.682-0.418l-3.938-4.923c-0.688-0.859-0.604-2.077 0.184-2.708 0.787-0.629 1.993-0.441 2.681 0.417l3.938 4.926z" fill="#000000"></path>
<path d="M34.083 8.891c0.008 1.1-0.81 2.006-1.818 2.013s-1.839-0.888-1.848-1.987l-0.048-6.305c-0.008-1.1 0.81-2.006 1.82-2.014s1.841 0.886 1.849 1.986l0.045 6.307z" fill="#000000"></path>
<path d="M52.954 31.811c-1.082-0.199-2.115 0.45-2.297 1.441s0.555 1.967 1.637 2.164l6.201 1.139c1.082 0.197 2.116-0.451 2.298-1.443s-0.554-1.965-1.636-2.164l-6.203-1.137z" fill="#000000"></path>
<path d="M51.736 19.68c-1.057 0.307-1.69 1.35-1.41 2.317 0.281 0.968 1.376 1.51 2.433 1.204l6.056-1.756c1.057-0.307 1.691-1.35 1.41-2.317-0.28-0.969-1.374-1.511-2.431-1.204l-6.058 1.756z" fill="#000000"></path>
<path d="M44.511 10.276c-0.792 0.764-0.868 1.981-0.168 2.707 0.699 0.727 1.92 0.696 2.712-0.066l4.543-4.373c0.792-0.763 0.868-1.981 0.169-2.708s-1.921-0.696-2.713 0.065l-4.543 4.375z" fill="#000000"></path>
</svg>
