<?xml version="1.0" encoding="utf-8"?>
<!-- Generated by IcoMoon.io -->
<!DOCTYPE svg PUBLIC "-//W3C//DTD SVG 1.1//EN" "http://www.w3.org/Graphics/SVG/1.1/DTD/svg11.dtd">
<svg version="1.1" xmlns="http://www.w3.org/2000/svg" xmlns:xlink="http://www.w3.org/1999/xlink" width="64" height="64" viewBox="0 0 64 64">
<path d="M7.653 27.876h2v27.065h-2v-27.065z" fill="#000000"></path>
<path d="M11.399 54.942c0 1.516-1.229 2.745-2.745 2.745s-2.745-1.229-2.745-2.745c0-1.516 1.229-2.745 2.745-2.745s2.745 1.229 2.745 2.745z" fill="#000000"></path>
<path d="M32.075 12.254l-0.032 0.016-0.032-0.016-31.305 15.268 11.762 7.027c0.91-1.637 2.726-3.065 5.181-4.198 3.571-1.789 8.667-2.899 14.395-2.984 5.728 0.085 10.823 1.196 14.395 2.984 2.455 1.132 4.271 2.561 5.182 4.198l11.76-7.027-31.306-15.268z" fill="#000000"></path>
<path d="M32.154 29.754v-0.008c-0.038 0-0.073 0.003-0.111 0.003s-0.073-0.003-0.111-0.003v0.008c-9.556 0.175-16.289 3.362-17.1 6.333-0.034 0.127-0.091 0.247-0.163 0.354v10.536c3.31-2.864 9.758-4.794 17.374-4.896 7.616 0.103 14.064 2.032 17.374 4.896v-10.535c-0.072-0.107-0.129-0.227-0.163-0.354-0.811-2.972-7.544-6.159-17.1-6.334z" fill="#000000"></path>
</svg>
