<?xml version="1.0" encoding="utf-8"?>
<!-- Generated by IcoMoon.io -->
<!DOCTYPE svg PUBLIC "-//W3C//DTD SVG 1.1//EN" "http://www.w3.org/Graphics/SVG/1.1/DTD/svg11.dtd">
<svg version="1.1" xmlns="http://www.w3.org/2000/svg" xmlns:xlink="http://www.w3.org/1999/xlink" width="64" height="64" viewBox="0 0 64 64">
<path d="M64.264 56.959c0 1.65-1.35 3-3 3h-8.030c-1.65 0-3-1.35-3-3v-32c0-1.65 1.35-3 3-3h8.030c1.65 0 3 1.35 3 3v32z" fill="#000000"></path>
<path d="M37.399 23.334l-7.875-17.125c0 0-1.625-4.875-6.625 0 0 0-4.542 3.167-3.542 8.667s1.334 8.458 1.334 8.458h16.708z" fill="#000000"></path>
<path d="M14.631 21.959c-1.649 0-3.558 0-4.241 0s-2.59 0-4.24 0h-3.414c-1.649 0-2.723 1.321-2.384 2.936l6.609 31.503c0.338 1.615 0.969 2.937 1.401 2.937s1.345 0 2.026 0c0.684 0 2.592 0 4.241 0h28.894c1.65 0 3-1.35 3-3v-31.376c0-1.65-1.35-3-3-3h-28.892z" fill="#000000"></path>
</svg>
